# xmcd
#
# Track frame offsets:
#	150
#	17467
#	34793
#	57290
#	76198
#	93006
#	108390
#	124760
#	139255
#	149915
#	158775
#	168117
#	197822
#	217051
#	236209
#	252026
#	265546
#	285277
#	302853
#	321761
#
# Disc length: 4485 seconds
#
# Revision: 1
# Processed by: cddbd v1.5.2PL0 Copyright (c) Steve Scherf et al.
# Submitted via: EasyCDDAExtractor 16.0.6.1
#
DISCID=14118314
DTITLE=Συλλογικός δίσκος - Τα μεγάλα τραγούδια-Μ. Θεοδωράκης 01
DYEAR=2010
DGENRE=Λαϊκή
TTITLE0=Μητσιάς Μανώλης - Νύχτα μαγικιά [Γιάννη Θεοδωράκης]
TTITLE1=Γλυκερία - Στην Ανατολή [Μίκης Θεοδωράκης]
TTITLE2=Φαραντούρη Μαρία - Της δικαιοσύνης ήλιε [Οδυσσέας Ελύτης]
TTITLE3=Μπάσης Δημήτρης - Στο περιγιάλι το κρυφό (Άρνηση) [Γιώργος Σεφέρης]
TTITLE4=Σιδηρόπουλος Παύλος - Κάποτε θά 'ρθουν [Λευτέρης Παπαδόπουλος]
TTITLE5=Πουλόπουλος Γιάννης - Το τραγούδι της ξενητειάς [Ερρίκος Θαλασσινός]
TTITLE6=Αρλέτα - Μαργαρίτα μαγιοπούλα [Ιάκωβος Καμπανέλλης]
TTITLE7=Λίντα Μαίρη - Απαγωγή [Μίκης Θεοδωράκης]
TTITLE8=Πρωτοψάλτη Άλκηστις - Δρόμοι που χάθηκα [Τάσος Λειβαδίτης]
TTITLE9=Θεοδωράκης Μίκης - Το γελαστό παιδί [Brendan Francis Behan, απ. Βασ. Ρ
TTITLE9=ώτας]
TTITLE10=Βιτάλη Ελένη-Καμένος Κώστας - Το κυκλάμινο [Γιάννης Ρίτσος]
TTITLE11=Ζορμπαλά Μαργαρίτα - Νύχτα μέσα στα μάτια σου [Γιάννης Θεοδωράκης]
TTITLE12=Μπιρμπίλη Σούλα - Ο κήπος έμπαινε στη θάλασσα [Οδυσσέας Ελύτης]
TTITLE13=Βενετσάνου Νένα - Νά 'χα τ' αθάνατο νερό [Γιάννης Ρίτσος]
TTITLE14=Μητσιάς Μανώλης - Γωνιά, γωνιά [Δημήτρης Χριστοδούλου]
TTITLE15=Ζορμπαλά Μαργαρίτα - Δακρυσμένα μάτια [Γιάννης Θεοδωράκης]
TTITLE16=Ζώη Μαρία - Άνοιξε λίγο το παράθυρο [Brendan Francis Behan, απ. Βασ.Ρ
TTITLE16=ώτας]
TTITLE17=Μερκούρη Μελίνα - Θα σημάνουν οι καμπάνες [Γιάννης Ρίτσος]
TTITLE18=Καζαντζίδης Στέλιος - Τι θέλεις απ' τα νιάτα μου [Δημήτρης Χριστοδούλ
TTITLE18=ου]
TTITLE19=Άνευ ερμηνευτού - Ζορμπάς [οργανικό]
EXTD=
EXTT0=
EXTT1=
EXTT2=
EXTT3=
EXTT4=
EXTT5=
EXTT6=
EXTT7=
EXTT8=
EXTT9=
EXTT10=
EXTT11=
EXTT12=
EXTT13=
EXTT14=
EXTT15=
EXTT16=
EXTT17=
EXTT18=
EXTT19=
PLAYORDER=
